<svg width="1024" height="1024" viewBox="0 0 1024 1024" fill="none" xmlns="http://www.w3.org/2000/svg">
<g clip-path="url(#clip0_4_2)">
<path d="M0 0H1024V1024H0V0ZM567.47 256.01C607.28 280.24 646.56 305.83 687.66 327.82C714.84 342.37 743.26 361.21 752.72 392.94C752.77 393.1 752.93 393.2 753.09 393.17C765.78 390.89 778.55 389.15 791.39 387.94C791.72 387.91 791.86 387.72 791.8 387.39C786.63 360.27 772.77 334.07 751.42 316.3C743.11 309.38 729.68 301.15 720.47 296.01C683.46 275.37 647.05 253.71 611.25 231.04C572.76 206.66 533.44 188.21 486.74 201.66C441.39 214.73 408.71 242.78 363.24 271.27C345.77 282.22 328.31 293.18 310.88 304.16C277.82 324.98 254.54 352.55 246.01 391.35C243.38 403.28 242.1 413.41 242.16 421.74C242.64 487.04 242.67 552.32 242.26 617.57C242.26 617.89 242.15 618.2 241.95 618.46C228.56 635.39 215.2 652.35 201.87 669.34C186.74 688.63 170.25 707.11 153.8 725.3C153.75 725.36 153.74 725.44 153.77 725.54C153.82 725.71 153.91 725.73 154.05 725.62C196.58 689.46 237.38 649.43 285.72 606.68C287.54 605.06 287.37 604.62 287.35 602.25C287.14 569.36 286.97 536.46 286.82 503.57C286.68 472.39 286.38 440.87 288.3 409.76C290.02 381.99 305.31 359.01 327.56 344.31C340.8 335.56 359.66 324.91 375.33 314.75C399.11 299.32 422.88 283.88 446.64 268.43C469.85 253.34 494.2 237.39 523.32 240.04C538.42 241.41 554.31 248 567.47 256.01ZM489.82 481.41L488.07 488.57C487.98 488.96 488.13 489.14 488.54 489.1C507.47 487.41 546.18 491.68 547.6 517.25C548.05 525.4 545.42 532.66 539.72 539.01C517.11 564.21 468.84 571.46 437.63 564.92C408.43 558.79 374.55 538.79 369.87 506.23C369.84 506.04 369.69 505.85 369.52 505.78C369.35 505.72 369.22 505.8 369.22 505.98C369.22 506.27 369.26 506.52 369.34 506.74C369.45 507.05 369.48 507.37 369.43 507.7C363.98 544.97 379.47 584.05 411.19 604.92C437.88 622.48 472.61 625.64 503.42 620.45C553.42 612.02 603.09 572.06 590.93 515.39C586.8 496.11 577.12 487.1 563.05 474.68C558.54 470.7 565.62 465.03 568.73 463.12C589.31 450.42 615.65 428.99 616.69 402.44C617.62 378.89 599.62 365.06 578.96 359.36C563.12 354.99 547.2 354.69 531.2 358.48C495.35 366.96 469.58 387.11 453.91 418.92C434.34 458.63 437.7 514.7 478.28 540.4C478.42 540.49 478.44 540.47 478.33 540.34C461.83 519.45 455.98 495.66 460.77 468.95C464.5 448.24 473.15 430.42 486.74 415.5C504.28 396.25 531.05 379.7 557.99 380.34C566.48 380.54 575.23 384.3 577.33 392.97C580.97 408.02 565.08 425.39 554.97 434.47C533.35 453.88 507.34 467.29 480.49 477.71C480.06 477.87 480.11 478.49 480.56 478.59L489.25 480.5C489.66 480.59 489.92 481 489.82 481.41ZM816.09 401.31C814.93 405.01 813.67 408.68 812.32 412.32C801.09 442.52 789.56 473.05 774.65 501.66C774.46 502.01 774.32 502.2 774.22 502.21C773.74 502.27 773.32 501.83 773.3 501.25L772.26 464.78C772.24 464.03 771.37 463.63 770.79 464.1C767.32 466.88 763.98 469.94 760.77 473.27C734.61 500.44 709.12 528.18 684.3 556.51C684.06 556.79 683.65 556.85 683.33 556.65L657.54 540.49C657.29 540.34 657.07 540.37 656.88 540.6L531.07 687.39C530.97 687.51 530.85 687.55 530.7 687.5C498.04 677.89 465.76 667.15 433.86 655.27C433.29 655.06 432.64 655.23 432.26 655.71L387.61 711.51C387.4 711.77 387.14 711.87 386.81 711.82C380.43 710.79 374.08 709.58 367.75 708.19C343.9 702.94 320.13 697.21 296.46 690.99C295.98 690.86 295.85 691.02 296.08 691.46C299.29 697.73 303.43 703.83 308.49 709.77C335.79 741.84 367.68 767.98 405.93 785.34C455.56 807.87 514.75 818.5 568.69 808.66C590.75 804.63 605.42 802.27 623.53 795.23C647.8 785.8 671.76 775.04 692.51 760.66C756.98 716 796.85 652.04 812.26 575.41C819.65 538.69 814.71 502.08 809.64 465.32C809.46 464.06 809.1 463.13 808.55 462.54C807.96 461.9 807.44 461.95 807 462.7L800.8 473.1C800.59 473.45 800.07 473.39 799.95 473.01C799.87 472.75 799.9 472.45 800.04 472.12C812.23 443.32 823.95 414.56 835.2 385.85C835.49 385.13 835.25 384.81 834.48 384.9C789.9 389.79 745.9 395.39 702.47 401.68C679.3 405.03 656.25 409.09 633.08 412.46C632.4 412.56 631.79 412.67 631.24 412.78C631.13 412.8 631.05 412.91 631.06 413.02C631.07 413.13 631.17 413.22 631.28 413.22C636.65 413.31 641.87 413.26 646.93 413.08C684.25 411.74 721.49 409.27 758.66 405.68C777.65 403.84 796.66 402.22 815.69 400.81C816.07 400.78 816.2 400.95 816.09 401.31ZM738.56 428.5C732.65 435.97 727.13 440.77 718.48 445.91C708.29 451.96 698.06 457.94 687.78 463.85C687.61 463.94 687.46 464.07 687.35 464.23C687.21 464.41 687.08 464.55 686.97 464.66C686.86 464.76 686.84 464.92 686.93 465.04C687.01 465.16 687.17 465.2 687.3 465.13C700.88 457.92 714.81 452.7 729.09 447.36C738.71 443.76 745.96 440 739.64 428.59C739.42 428.18 738.85 428.13 738.56 428.5Z" fill="#3C4853"/>
<path d="M567.47 256.01C554.31 248 538.42 241.41 523.32 240.04C494.2 237.39 469.85 253.34 446.64 268.43C422.88 283.88 399.11 299.32 375.33 314.75C359.66 324.91 340.8 335.56 327.56 344.31C305.31 359.01 290.02 381.99 288.3 409.76C286.38 440.87 286.68 472.39 286.82 503.57C286.97 536.46 287.14 569.36 287.35 602.25C287.37 604.62 287.54 605.06 285.72 606.68C237.38 649.43 196.58 689.46 154.05 725.62C153.91 725.73 153.82 725.71 153.77 725.54C153.74 725.44 153.75 725.36 153.8 725.3C170.25 707.11 186.74 688.63 201.87 669.34C215.2 652.35 228.56 635.39 241.95 618.46C242.15 618.2 242.26 617.89 242.26 617.57C242.67 552.32 242.64 487.04 242.16 421.74C242.1 413.41 243.38 403.28 246.01 391.35C254.54 352.55 277.82 324.98 310.88 304.16C328.31 293.18 345.77 282.22 363.24 271.27C408.71 242.78 441.39 214.73 486.74 201.66C533.44 188.21 572.76 206.66 611.25 231.04C647.05 253.71 683.46 275.37 720.47 296.01C729.68 301.15 743.11 309.38 751.42 316.3C772.77 334.07 786.63 360.27 791.8 387.39C791.86 387.72 791.72 387.91 791.39 387.94C778.55 389.15 765.78 390.89 753.09 393.17C752.93 393.2 752.77 393.1 752.72 392.94C743.26 361.21 714.84 342.37 687.66 327.82C646.56 305.83 607.28 280.24 567.47 256.01Z" fill="#0BB973"/>
<path d="M489.25 480.5L480.56 478.59C480.11 478.49 480.06 477.87 480.49 477.71C507.34 467.29 533.35 453.88 554.97 434.47C565.08 425.39 580.97 408.02 577.33 392.97C575.23 384.3 566.48 380.54 557.99 380.34C531.05 379.7 504.28 396.25 486.74 415.5C473.15 430.42 464.5 448.24 460.77 468.95C455.98 495.66 461.83 519.45 478.33 540.34C478.44 540.47 478.42 540.49 478.28 540.4C437.7 514.7 434.34 458.63 453.91 418.92C469.58 387.11 495.35 366.96 531.2 358.48C547.2 354.69 563.12 354.99 578.96 359.36C599.62 365.06 617.62 378.89 616.69 402.44C615.65 428.99 589.31 450.42 568.73 463.12C565.62 465.03 558.54 470.7 563.05 474.68C577.12 487.1 586.8 496.11 590.93 515.39C603.09 572.06 553.42 612.02 503.42 620.45C472.61 625.64 437.88 622.48 411.19 604.92C379.47 584.05 363.98 544.97 369.43 507.7C369.48 507.37 369.45 507.05 369.34 506.74C369.26 506.52 369.22 506.27 369.22 505.98C369.22 505.8 369.35 505.72 369.52 505.78C369.69 505.85 369.84 506.04 369.87 506.23C374.55 538.79 408.43 558.79 437.63 564.92C468.84 571.46 517.11 564.21 539.72 539.01C545.42 532.66 548.05 525.4 547.6 517.25C546.18 491.68 507.47 487.41 488.54 489.1C488.13 489.14 487.98 488.96 488.07 488.57L489.82 481.41C489.92 481 489.66 480.59 489.25 480.5Z" fill="#FCFDFD"/>
<path d="M815.69 400.81C796.66 402.22 777.65 403.84 758.66 405.68C721.49 409.27 684.25 411.74 646.93 413.08C641.87 413.26 636.65 413.31 631.28 413.22C631.17 413.22 631.07 413.13 631.06 413.02C631.05 412.91 631.13 412.8 631.24 412.78C631.79 412.67 632.4 412.56 633.08 412.46C656.25 409.09 679.3 405.03 702.47 401.68C745.9 395.39 789.9 389.79 834.48 384.9C835.25 384.81 835.49 385.13 835.2 385.85C823.95 414.56 812.23 443.32 800.04 472.12C799.9 472.45 799.87 472.75 799.95 473.01C800.07 473.39 800.59 473.45 800.8 473.1L807 462.7C807.44 461.95 807.96 461.9 808.55 462.54C809.1 463.13 809.46 464.06 809.64 465.32C814.71 502.08 819.65 538.69 812.26 575.41C796.85 652.04 756.98 716 692.51 760.66C671.76 775.04 647.8 785.8 623.53 795.23C605.42 802.27 590.75 804.63 568.69 808.66C514.75 818.5 455.56 807.87 405.93 785.34C367.68 767.98 335.79 741.84 308.49 709.77C303.43 703.83 299.29 697.73 296.08 691.46C295.85 691.02 295.98 690.86 296.46 690.99C320.13 697.21 343.9 702.94 367.75 708.19C374.08 709.58 380.43 710.79 386.81 711.82C387.14 711.87 387.4 711.77 387.61 711.51L432.26 655.71C432.64 655.23 433.29 655.06 433.86 655.27C465.76 667.15 498.04 677.89 530.7 687.5C530.85 687.55 530.97 687.51 531.07 687.39L656.88 540.6C657.07 540.37 657.29 540.34 657.54 540.49L683.33 556.65C683.65 556.85 684.06 556.79 684.3 556.51C709.12 528.18 734.61 500.44 760.77 473.27C763.98 469.94 767.32 466.88 770.79 464.1C771.37 463.63 772.24 464.03 772.26 464.78L773.3 501.25C773.32 501.83 773.74 502.27 774.22 502.21C774.32 502.2 774.46 502.01 774.65 501.66C789.56 473.05 801.09 442.52 812.32 412.32C813.67 408.68 814.93 405.01 816.09 401.31C816.2 400.95 816.07 400.78 815.69 400.81Z" fill="#0BB973"/>
<path d="M738.56 428.5C738.85 428.13 739.42 428.18 739.64 428.59C745.96 440 738.71 443.76 729.09 447.36C714.81 452.7 700.88 457.92 687.3 465.13C687.17 465.2 687.01 465.16 686.93 465.04C686.84 464.92 686.86 464.76 686.97 464.66C687.08 464.55 687.21 464.41 687.35 464.23C687.46 464.07 687.61 463.94 687.78 463.85C698.06 457.94 708.29 451.96 718.48 445.91C727.13 440.77 732.65 435.97 738.56 428.5Z" fill="#0BB973"/>
</g>
<defs>
<clipPath id="clip0_4_2">
<rect width="1024" height="1024" fill="white"/>
</clipPath>
</defs>
</svg>
